<svg width="800" height="400" viewBox="0 0 800 400" xmlns="http://www.w3.org/2000/svg"><mask id="satori_om-id"><rect x="0" y="0" width="800" height="400" fill="#fff"/></mask><rect x="0" y="0" width="800" height="400" fill="#fff"/><clipPath id="satori_cp-id-0"><rect x="350" y="82" width="100" height="67"/></clipPath><mask id="satori_om-id-0"><rect x="350" y="82" width="100" height="67" fill="#fff"/></mask><image x="350" y="82" width="100" height="67" href="data:image/svg+xml;utf8,%3Csvg  fill=%22none%22 xmlns=%22http://www.w3.org/2000/svg%22 width=%22100%22 height=%2267%22 viewBox=%220 0 100 67%22%3E%3Cpath d=%22M66.6329 33.3165C66.6329 14.9458 51.6895 0 33.3176 0C14.9469 0 0 14.9458 0 33.3165C0 51.6883 14.9469 66.6329 33.3176 66.6329C51.6883 66.6329 66.6329 51.6883 66.6329 33.3165ZM33.3164 62.3906C17.286 62.3906 4.24111 49.3493 4.24111 33.3165C4.24111 17.2848 17.2848 4.24111 33.3164 4.24111C49.3481 4.24111 62.3918 17.2848 62.3918 33.3165C62.3918 49.3481 49.3493 62.3906 33.3164 62.3906Z%22 fill=%22url(%23paint0_linear_141_136)%22%3E%3C/path%3E%3Cpath d=%22M39.8707 33.9197L31.1435 28.2806C30.1035 27.5692 29.6195 26.7483 29.6195 25.7071C29.5488 24.6684 30.0352 23.7921 31.0728 23.0807C32.1128 22.3694 33.2894 22.1503 34.6049 22.3152C35.9217 22.4789 36.9604 23.0266 37.5847 23.957C38.6246 25.2172 40.5632 25.6541 42.1544 24.9428C43.749 24.1219 44.3721 22.5884 43.3345 21.3306C42.0166 19.4144 39.8 18.0458 37.2384 17.444V15.2545C37.2384 13.7764 35.7827 12.627 33.9136 12.627C32.0421 12.627 30.5888 13.7764 30.5888 15.2545V17.3898C29.2025 17.7726 27.887 18.2661 26.7787 19.087C24.2866 20.7841 22.9015 23.1926 22.971 25.7649C22.971 28.3371 24.4255 30.7468 26.9872 32.3344L35.6461 37.9723C36.7532 38.6307 37.3091 39.6707 37.3797 40.7106C37.3797 41.8601 36.8238 42.7905 35.7156 43.5019C34.6756 44.2133 33.4307 44.4865 31.9738 44.3228C30.5899 44.1579 29.55 43.5561 28.7891 42.5715C27.8882 41.3125 25.8801 40.8743 24.2878 41.5857C22.6942 42.4066 22.1395 43.9389 23.0405 45.1979C24.495 47.2236 26.6409 48.538 29.4817 49.2482V51.3835C29.4817 52.8616 30.9362 54.0111 32.8065 54.0111C34.6756 54.0111 36.1313 52.8616 36.1313 51.3835V49.2482C37.5163 48.8654 38.9014 48.3178 40.0803 47.4969C42.5725 45.7997 44.0282 43.337 44.0282 40.6541C43.9575 38.0253 42.4323 35.6156 39.8707 33.9197Z%22 fill=%22url(%23paint1_linear_141_136)%22%3E%3C/path%3E%3Cpath d=%22M87.8032 57.749H57.4711C53.1912 61.9819 47.8076 65.1018 41.7952 66.6329H87.802C88.6806 66.6329 89.3931 65.9203 89.3931 65.0417V59.339C89.3943 58.4616 88.6818 57.749 87.8032 57.749Z%22 fill=%22url(%23paint2_linear_141_136)%22%3E%3C/path%3E%3Cpath d=%22M98.4088 47.6719H64.5388C63.0324 50.9413 61.0291 53.9364 58.6194 56.5557H98.4088C99.2874 56.5557 100 55.8443 100 54.9646V49.2619C100 48.3844 99.2874 47.6719 98.4088 47.6719Z%22 fill=%22url(%23paint3_linear_141_136)%22%3E%3C/path%3E%3Cpath d=%22M93.1066 46.4825C93.984 46.4825 94.6977 45.7699 94.6977 44.8913V39.1886C94.6977 38.31 93.9852 37.5986 93.1066 37.5986H67.4185C67.031 40.7067 66.2325 43.6876 65.0688 46.4825H93.1066Z%22 fill=%22url(%23paint4_linear_141_136)%22%3E%3C/path%3E%3Cpath d=%22M98.4088 27.5215H67.1959C67.5162 29.4071 67.6929 31.341 67.6929 33.3161C67.6929 34.3584 67.6399 35.3877 67.548 36.4065H98.4088C99.2874 36.4065 100 35.6951 100 34.8153V29.1126C100 28.234 99.2874 27.5215 98.4088 27.5215Z%22 fill=%22url(%23paint5_linear_141_136)%22%3E%3C/path%3E%3Cpath d=%22M82.4996 26.3303C83.3783 26.3303 84.092 25.619 84.092 24.7392V19.0365C84.092 18.1579 83.3794 17.4453 82.4996 17.4453H63.7957C65.2431 20.2095 66.3278 23.1892 66.978 26.3292L82.4996 26.3303Z%22 fill=%22url(%23paint6_linear_141_136)%22%3E%3C/path%3E%3Cdefs%3E%3ClinearGradient id=%22paint0_linear_141_136%22 x1=%2233.3165%22 y1=%220%22 x2=%2233.3165%22 y2=%2266.6329%22 gradientUnits=%22userSpaceOnUse%22%3E%3Cstop stop-color=%22%232392F7%22%3E%3C/stop%3E%3Cstop offset=%221%22 stop-color=%22%231275E3%22%3E%3C/stop%3E%3C/linearGradient%3E%3ClinearGradient id=%22paint1_linear_141_136%22 x1=%2233.3186%22 y1=%2212.627%22 x2=%2233.3186%22 y2=%2254.0111%22 gradientUnits=%22userSpaceOnUse%22%3E%3Cstop stop-color=%22%232392F7%22%3E%3C/stop%3E%3Cstop offset=%221%22 stop-color=%22%231275E3%22%3E%3C/stop%3E%3C/linearGradient%3E%3ClinearGradient id=%22paint2_linear_141_136%22 x1=%2265.5941%22 y1=%2257.749%22 x2=%2265.5941%22 y2=%2266.6329%22 gradientUnits=%22userSpaceOnUse%22%3E%3Cstop stop-color=%22%232392F7%22%3E%3C/stop%3E%3Cstop offset=%221%22 stop-color=%22%231275E3%22%3E%3C/stop%3E%3C/linearGradient%3E%3ClinearGradient id=%22paint3_linear_141_136%22 x1=%2279.3097%22 y1=%2247.6719%22 x2=%2279.3097%22 y2=%2256.5557%22 gradientUnits=%22userSpaceOnUse%22%3E%3Cstop stop-color=%22%232392F7%22%3E%3C/stop%3E%3Cstop offset=%221%22 stop-color=%22%231275E3%22%3E%3C/stop%3E%3C/linearGradient%3E%3ClinearGradient id=%22paint4_linear_141_136%22 x1=%2279.8833%22 y1=%2237.5986%22 x2=%2279.8833%22 y2=%2246.4825%22 gradientUnits=%22userSpaceOnUse%22%3E%3Cstop stop-color=%22%232392F7%22%3E%3C/stop%3E%3Cstop offset=%221%22 stop-color=%22%231275E3%22%3E%3C/stop%3E%3C/linearGradient%3E%3ClinearGradient id=%22paint5_linear_141_136%22 x1=%2283.5979%22 y1=%2227.5215%22 x2=%2283.5979%22 y2=%2236.4065%22 gradientUnits=%22userSpaceOnUse%22%3E%3Cstop stop-color=%22%232392F7%22%3E%3C/stop%3E%3Cstop offset=%221%22 stop-color=%22%231275E3%22%3E%3C/stop%3E%3C/linearGradient%3E%3ClinearGradient id=%22paint6_linear_141_136%22 x1=%2273.9438%22 y1=%2217.4453%22 x2=%2273.9438%22 y2=%2226.3303%22 gradientUnits=%22userSpaceOnUse%22%3E%3Cstop stop-color=%22%232392F7%22%3E%3C/stop%3E%3Cstop offset=%221%22 stop-color=%22%231275E3%22%3E%3C/stop%3E%3C/linearGradient%3E%3C/defs%3E%3C/svg%3E" preserveAspectRatio="none" clip-path="url(#satori_cp-id-0)" mask="url(#satori_om-id-0)"/><mask id="satori_om-id-0-0"><rect x="350" y="82" width="0" height="67" fill="#fff"/></mask><mask id="satori_om-id-0-1"><rect x="350" y="82" width="0" height="67" fill="#fff"/></mask><mask id="satori_om-id-0-2"><rect x="350" y="82" width="0" height="67" fill="#fff"/></mask><mask id="satori_om-id-0-3"><rect x="350" y="82" width="0" height="67" fill="#fff"/></mask><mask id="satori_om-id-0-4"><rect x="350" y="82" width="0" height="67" fill="#fff"/></mask><mask id="satori_om-id-0-5"><rect x="350" y="82" width="0" height="67" fill="#fff"/></mask><mask id="satori_om-id-0-6"><rect x="350" y="82" width="0" height="67" fill="#fff"/></mask><mask id="satori_om-id-0-7"><rect x="350" y="82" width="0" height="67" fill="#fff"/></mask><mask id="satori_om-id-0-7-0"><rect x="350" y="82" width="0" height="67" fill="#fff"/></mask><mask id="satori_om-id-0-7-0-0"><rect x="350" y="82" width="0" height="67" fill="#fff"/></mask><mask id="satori_om-id-0-7-0-1"><rect x="350" y="82" width="0" height="67" fill="#fff"/></mask><mask id="satori_om-id-0-7-1"><rect x="350" y="82" width="0" height="67" fill="#fff"/></mask><mask id="satori_om-id-0-7-1-0"><rect x="350" y="82" width="0" height="67" fill="#fff"/></mask><mask id="satori_om-id-0-7-1-1"><rect x="350" y="82" width="0" height="67" fill="#fff"/></mask><mask id="satori_om-id-0-7-2"><rect x="350" y="82" width="0" height="67" fill="#fff"/></mask><mask id="satori_om-id-0-7-2-0"><rect x="350" y="82" width="0" height="67" fill="#fff"/></mask><mask id="satori_om-id-0-7-2-1"><rect x="350" y="82" width="0" height="67" fill="#fff"/></mask><mask id="satori_om-id-0-7-3"><rect x="350" y="82" width="0" height="67" fill="#fff"/></mask><mask id="satori_om-id-0-7-3-0"><rect x="350" y="82" width="0" height="67" fill="#fff"/></mask><mask id="satori_om-id-0-7-3-1"><rect x="350" y="82" width="0" height="67" fill="#fff"/></mask><mask id="satori_om-id-0-7-4"><rect x="350" y="82" width="0" height="67" fill="#fff"/></mask><mask id="satori_om-id-0-7-4-0"><rect x="350" y="82" width="0" height="67" fill="#fff"/></mask><mask id="satori_om-id-0-7-4-1"><rect x="350" y="82" width="0" height="67" fill="#fff"/></mask><mask id="satori_om-id-0-7-5"><rect x="350" y="82" width="0" height="67" fill="#fff"/></mask><mask id="satori_om-id-0-7-5-0"><rect x="350" y="82" width="0" height="67" fill="#fff"/></mask><mask id="satori_om-id-0-7-5-1"><rect x="350" y="82" width="0" height="67" fill="#fff"/></mask><mask id="satori_om-id-0-7-6"><rect x="350" y="82" width="0" height="67" fill="#fff"/></mask><mask id="satori_om-id-0-7-6-0"><rect x="350" y="82" width="0" height="67" fill="#fff"/></mask><mask id="satori_om-id-0-7-6-1"><rect x="350" y="82" width="0" height="67" fill="#fff"/></mask><clipPath id="satori_cp-id-1"><rect x="275" y="149" width="250" height="91"/></clipPath><mask id="satori_om-id-1"><rect x="275" y="149" width="250" height="91" fill="#fff"/></mask><image x="275" y="149" width="250" height="91" href="data:image/svg+xml;utf8,%3Csvg  fill=%22none%22 xmlns=%22http://www.w3.org/2000/svg%22 width=%22250%22 height=%2291%22 viewBox=%220 0 250 91%22%3E%3Cg clip-path=%22url(%23clip0_112_1222)%22%3E%3Cpath d=%22M23.1107 30C33.0634 30 46.9804 37.5067 44.197 57.3279H13.5796C15.0978 61.8826 19.0621 64.2443 24.3758 64.2443C29.774 64.2443 31.4609 63.0634 34.4973 61.7982L41.8354 68.8833C37.9555 72.6788 32.726 75.4622 23.8698 75.4622C12.9892 75.4622 0 67.9555 0 52.8576C0 37.5067 13.1579 30 23.1107 30ZM23.1107 41.3866C19.3151 41.3866 15.4352 43.5796 13.7483 47.9656H32.3887C31.0391 43.5796 26.9062 41.3866 23.1107 41.3866ZM87.8036 30.7591L66.7173 62.9791H86.3698V74.6188H45.4622L66.5486 42.3988H47.4022V30.7591H87.8036ZM118.843 30C128.88 30 140.435 37.5067 140.435 52.6046C140.435 68.2928 128.88 75.4622 118.843 75.4622C112.095 75.4622 108.131 71.751 107.54 70.2328V90.6444H94.2139V65.2564V30.7591H107.54V34.8077C108.131 33.8799 112.095 30 118.843 30ZM116.903 63.7382C122.638 63.7382 127.53 59.8583 127.53 52.6046C127.53 45.6039 122.638 41.724 116.903 41.724C111.42 41.724 106.95 45.5196 106.95 52.6046C106.95 59.9426 111.42 63.7382 116.903 63.7382ZM179.234 30.7591H192.561V74.6188H179.234V70.2328C178.644 71.751 174.679 75.4622 167.932 75.4622C157.895 75.4622 146.339 68.2928 146.339 52.6046C146.339 37.5067 157.895 30 167.932 30C174.679 30 178.644 33.8799 179.234 34.8077V30.7591ZM169.872 63.7382C175.354 63.7382 179.825 59.9426 179.825 52.6046C179.825 45.5196 175.354 41.724 169.872 41.724C164.136 41.724 159.244 45.6039 159.244 52.6046C159.244 59.8583 164.136 63.7382 169.872 63.7382ZM236.758 30.5904H250L223.178 90.6444H209.852L217.949 73.1005L198.971 30.5904H212.213L224.528 58.7618L236.758 30.5904Z%22 fill=%22url(%23paint0_linear_112_1222)%22%3E%3C/path%3E%3C/g%3E%3Cdefs%3E%3ClinearGradient id=%22paint0_linear_112_1222%22 x1=%229.31322e-07%22 y1=%2260.3222%22 x2=%22250%22 y2=%2260.3222%22 gradientUnits=%22userSpaceOnUse%22%3E%3Cstop stop-color=%22%232392F7%22%3E%3C/stop%3E%3Cstop offset=%221%22 stop-color=%22%231275E3%22%3E%3C/stop%3E%3C/linearGradient%3E%3CclipPath id=%22clip0_112_1222%22%3E%3Crect width=%22250%22 height=%2290.6444%22 fill=%22white%22%3E%3C/rect%3E%3C/clipPath%3E%3C/defs%3E%3C/svg%3E" preserveAspectRatio="none" clip-path="url(#satori_cp-id-1)" mask="url(#satori_om-id-1)"/><mask id="satori_om-id-1-0"><rect x="275" y="149" width="0" height="91" fill="#fff"/></mask><mask id="satori_om-id-1-0-0"><rect x="275" y="149" width="0" height="91" fill="#fff"/></mask><mask id="satori_om-id-1-1"><rect x="275" y="149" width="0" height="91" fill="#fff"/></mask><mask id="satori_om-id-1-1-0"><rect x="275" y="149" width="0" height="91" fill="#fff"/></mask><mask id="satori_om-id-1-1-0-0"><rect x="275" y="149" width="0" height="91" fill="#fff"/></mask><mask id="satori_om-id-1-1-0-1"><rect x="275" y="149" width="0" height="91" fill="#fff"/></mask><mask id="satori_om-id-1-1-1"><rect x="275" y="149" width="0" height="91" fill="#fff"/></mask><mask id="satori_om-id-1-1-1-0"><rect x="275" y="149" width="0" height="91" fill="#fff"/></mask><mask id="satori_om-id-2"><rect x="220" y="280" width="360" height="38" fill="#fff"/></mask><path fill="black" d="M229.1 301.7L220.7 286.7L226.2 286.7L231.5 296.7L231.7 296.7L237.0 286.7L242.5 286.7L234.0 301.7L234.0 310.0L229.1 310.0L229.1 301.7ZM249.4 310.3L249.4 310.3Q246.7 310.3 244.8 309.2Q242.9 308.0 241.8 306.0Q240.8 304.0 240.8 301.3L240.8 301.3Q240.8 298.6 241.8 296.6Q242.9 294.5 244.8 293.4Q246.7 292.3 249.4 292.3L249.4 292.3Q252.0 292.3 253.9 293.4Q255.9 294.5 256.9 296.6Q258.0 298.6 258.0 301.3L258.0 301.3Q258.0 304.0 256.9 306.0Q255.9 308.0 253.9 309.2Q252.0 310.3 249.4 310.3ZM249.4 306.5L249.4 306.5Q250.6 306.5 251.4 305.9Q252.2 305.2 252.6 304.0Q253.0 302.8 253.0 301.3L253.0 301.3Q253.0 299.7 252.6 298.5Q252.2 297.3 251.4 296.7Q250.6 296.0 249.4 296.0L249.4 296.0Q248.2 296.0 247.4 296.7Q246.5 297.3 246.1 298.5Q245.7 299.7 245.7 301.3L245.7 301.3Q245.7 302.8 246.1 304.0Q246.5 305.2 247.4 305.9Q248.2 306.5 249.4 306.5ZM272.3 302.5L272.3 302.5L272.3 292.5L277.2 292.5L277.2 310.0L272.5 310.0L272.5 306.8L272.3 306.8Q271.7 308.3 270.4 309.2Q269 310.2 267.0 310.2L267.0 310.2Q265.3 310.2 264.0 309.4Q262.6 308.6 261.9 307.1Q261.1 305.7 261.1 303.6L261.1 303.6L261.1 292.5L266.0 292.5L266.0 302.7Q266.0 304.3 266.8 305.2Q267.6 306.1 269.0 306.1L269.0 306.1Q269.9 306.1 270.6 305.7Q271.4 305.3 271.9 304.5Q272.3 303.7 272.3 302.5ZM285.9 310.0L281.0 310.0L281.0 292.5L285.7 292.5L285.7 295.5L285.9 295.5Q286.4 293.9 287.5 293.1Q288.6 292.2 290.1 292.2L290.1 292.2Q290.5 292.2 290.9 292.3Q291.3 292.3 291.6 292.4L291.6 292.4L291.6 296.7Q291.3 296.6 290.7 296.5Q290.1 296.5 289.6 296.5L289.6 296.5Q288.5 296.5 287.7 296.9Q286.8 297.4 286.3 298.2Q285.9 299.0 285.9 300.1L285.9 300.1L285.9 310.0Z M310.0 310.0L305.2 310.0L305.2 286.7L310.1 286.7L310.1 295.4L310.2 295.4Q310.5 294.7 311.2 294.0Q311.8 293.3 312.7 292.8Q313.7 292.3 315.2 292.3L315.2 292.3Q317.1 292.3 318.7 293.3Q320.3 294.3 321.3 296.3Q322.3 298.2 322.3 301.2L322.3 301.2Q322.3 304.2 321.3 306.2Q320.4 308.2 318.8 309.2Q317.2 310.2 315.2 310.2L315.2 310.2Q313.8 310.2 312.8 309.8Q311.8 309.3 311.2 308.6Q310.6 307.9 310.2 307.2L310.2 307.2L310.0 307.2L310.0 310.0ZM310.0 301.2L310.0 301.2Q310.0 302.8 310.4 303.9Q310.8 305.1 311.7 305.7Q312.5 306.4 313.6 306.4L313.6 306.4Q314.8 306.4 315.6 305.7Q316.5 305.1 316.9 303.9Q317.3 302.7 317.3 301.2L317.3 301.2Q317.3 299.7 316.9 298.6Q316.5 297.4 315.7 296.8Q314.8 296.1 313.6 296.1L313.6 296.1Q312.5 296.1 311.7 296.7Q310.8 297.4 310.4 298.5Q310.0 299.7 310.0 301.2ZM333.4 310.3L333.4 310.3Q330.7 310.3 328.8 309.2Q326.9 308.1 325.8 306.1Q324.8 304.1 324.8 301.3L324.8 301.3Q324.8 298.6 325.8 296.6Q326.9 294.5 328.8 293.4Q330.7 292.3 333.2 292.3L333.2 292.3Q335.0 292.3 336.5 292.8Q338.0 293.4 339.1 294.5Q340.2 295.6 340.8 297.2Q341.4 298.9 341.4 301.1L341.4 301.1L341.4 302.5L326.7 302.5L326.7 299.5L336.9 299.5Q336.9 298.4 336.4 297.6Q336.0 296.8 335.2 296.3Q334.4 295.9 333.3 295.9L333.3 295.9Q332.2 295.9 331.4 296.4Q330.5 296.9 330.0 297.7Q329.6 298.6 329.6 299.6L329.6 299.6L329.6 302.5Q329.6 303.8 330.0 304.7Q330.5 305.7 331.4 306.2Q332.3 306.7 333.5 306.7L333.5 306.7Q334.3 306.7 335.0 306.5Q335.7 306.2 336.1 305.8Q336.6 305.3 336.9 304.7L336.9 304.7L341.3 305.0Q341 306.6 339.9 307.8Q338.9 309.0 337.2 309.6Q335.6 310.3 333.4 310.3ZM359.1 297.5L359.1 297.5L354.7 297.7Q354.6 297.2 354.2 296.7Q353.8 296.3 353.2 296.0Q352.6 295.7 351.8 295.7L351.8 295.7Q350.6 295.7 349.9 296.2Q349.1 296.6 349.1 297.4L349.1 297.4Q349.1 298.1 349.6 298.5Q350.1 298.9 351.3 299.2L351.3 299.2L354.5 299.8Q357.0 300.3 358.3 301.5Q359.5 302.7 359.5 304.5L359.5 304.5Q359.5 306.3 358.5 307.6Q357.5 308.8 355.8 309.6Q354.0 310.3 351.8 310.3L351.8 310.3Q348.3 310.3 346.2 308.8Q344.2 307.4 343.8 304.9L343.8 304.9L348.6 304.6Q348.8 305.7 349.6 306.3Q350.5 306.8 351.8 306.8L351.8 306.8Q353.0 306.8 353.8 306.3Q354.6 305.8 354.6 305.0L354.6 305.0Q354.6 304.4 354.0 303.9Q353.5 303.5 352.4 303.3L352.4 303.3L349.3 302.7Q346.8 302.2 345.5 300.9Q344.3 299.7 344.3 297.7L344.3 297.7Q344.3 296.0 345.2 294.8Q346.1 293.6 347.8 292.9Q349.5 292.3 351.7 292.3L351.7 292.3Q355 292.3 356.9 293.7Q358.8 295.1 359.1 297.5ZM361.4 292.5L371.9 292.5L371.9 296.1L361.4 296.1L361.4 292.5ZM363.7 305.2L363.7 288.3L368.6 288.3L368.6 304.6Q368.6 305.3 368.8 305.6Q369.0 306.0 369.4 306.1Q369.7 306.3 370.2 306.3L370.2 306.3Q370.6 306.3 370.9 306.2Q371.2 306.2 371.4 306.1L371.4 306.1L372.2 309.7Q371.8 309.8 371.2 310.0Q370.5 310.2 369.6 310.2L369.6 310.2Q367.8 310.3 366.5 309.7Q365.2 309.2 364.5 308.1Q363.7 306.9 363.7 305.2L363.7 305.2Z M393.6 292.5L398.7 292.5L392.6 310.0L387.1 310.0L381.0 292.5L386.2 292.5L389.8 305.0L390.0 305.0L393.6 292.5ZM406.0 310.0L401.2 310.0L401.2 292.5L406.0 292.5L406.0 310.0ZM403.6 290.2L403.6 290.2Q402.5 290.2 401.8 289.5Q401 288.8 401 287.8L401 287.8Q401 286.8 401.8 286.1Q402.5 285.3 403.6 285.3L403.6 285.3Q404.7 285.3 405.5 286.1Q406.2 286.8 406.2 287.8L406.2 287.8Q406.2 288.8 405.5 289.5Q404.7 290.2 403.6 290.2ZM408.7 292.5L419.2 292.5L419.2 296.1L408.7 296.1L408.7 292.5ZM411.0 305.2L411.0 288.3L415.9 288.3L415.9 304.6Q415.9 305.3 416.1 305.6Q416.3 306.0 416.7 306.1Q417.0 306.3 417.5 306.3L417.5 306.3Q417.9 306.3 418.2 306.2Q418.5 306.2 418.7 306.1L418.7 306.1L419.5 309.7Q419.1 309.8 418.5 310.0Q417.8 310.2 416.9 310.2L416.9 310.2Q415.1 310.3 413.8 309.7Q412.5 309.2 411.8 308.1Q411.0 306.9 411.0 305.2L411.0 305.2ZM433.5 302.5L433.5 302.5L433.5 292.5L438.4 292.5L438.4 310.0L433.7 310.0L433.7 306.8L433.5 306.8Q432.9 308.3 431.6 309.2Q430.2 310.2 428.2 310.2L428.2 310.2Q426.5 310.2 425.1 309.4Q423.8 308.6 423.1 307.1Q422.3 305.7 422.3 303.6L422.3 303.6L422.3 292.5L427.2 292.5L427.2 302.7Q427.2 304.3 428.0 305.2Q428.8 306.1 430.2 306.1L430.2 306.1Q431.1 306.1 431.8 305.7Q432.6 305.3 433.1 304.5Q433.5 303.7 433.5 302.5ZM447.2 310.3L447.2 310.3Q445.5 310.3 444.2 309.7Q442.9 309.1 442.2 308.0Q441.4 306.8 441.4 305.1L441.4 305.1Q441.4 303.6 441.9 302.6Q442.5 301.6 443.4 301.0Q444.3 300.4 445.5 300.1Q446.7 299.8 448.0 299.7L448.0 299.7Q449.5 299.5 450.4 299.4Q451.3 299.3 451.8 299.0Q452.2 298.7 452.2 298.1L452.2 298.1L452.2 298.1Q452.2 297.0 451.5 296.4Q450.8 295.8 449.6 295.8L449.6 295.8Q448.3 295.8 447.5 296.4Q446.7 297.0 446.5 297.8L446.5 297.8L442.0 297.5Q442.4 295.9 443.4 294.7Q444.4 293.5 445.9 292.9Q447.5 292.3 449.6 292.3L449.6 292.3Q451.1 292.3 452.4 292.6Q453.7 293.0 454.8 293.7Q455.8 294.4 456.4 295.5Q457.0 296.6 457.0 298.2L457.0 298.2L457.0 310.0L452.4 310.0L452.4 307.5L452.3 307.5Q451.9 308.3 451.2 309.0Q450.5 309.6 449.5 309.9Q448.5 310.3 447.2 310.3ZM448.6 306.9L448.6 306.9Q449.6 306.9 450.5 306.5Q451.3 306.1 451.7 305.4Q452.2 304.6 452.2 303.7L452.2 303.7L452.2 301.9Q452.0 302.0 451.6 302.1Q451.2 302.2 450.7 302.3Q450.2 302.4 449.7 302.5Q449.2 302.6 448.9 302.6L448.9 302.6Q448.0 302.8 447.4 303.0Q446.7 303.3 446.4 303.8Q446.0 304.2 446.0 304.9L446.0 304.9Q446.0 305.9 446.7 306.4Q447.5 306.9 448.6 306.9ZM460.8 286.7L465.6 286.7L465.6 310.0L460.8 310.0L460.8 286.7Z M485.5 310.0L480.4 310.0L475.6 292.5L480.5 292.5L483.2 304.2L483.4 304.2L486.2 292.5L491.0 292.5L493.9 304.2L494 304.2L496.7 292.5L501.5 292.5L496.8 310.0L491.7 310.0L488.7 299.0L488.5 299.0L485.5 310.0ZM509.1 310.3L509.1 310.3Q507.4 310.3 506.1 309.7Q504.8 309.1 504.1 308.0Q503.3 306.8 503.3 305.1L503.3 305.1Q503.3 303.6 503.8 302.6Q504.4 301.6 505.3 301.0Q506.2 300.4 507.4 300.1Q508.6 299.8 509.9 299.7L509.9 299.7Q511.4 299.5 512.3 299.4Q513.2 299.3 513.7 299.0Q514.1 298.7 514.1 298.1L514.1 298.1L514.1 298.1Q514.1 297.0 513.4 296.4Q512.7 295.8 511.5 295.8L511.5 295.8Q510.2 295.8 509.4 296.4Q508.6 297.0 508.4 297.8L508.4 297.8L503.9 297.5Q504.3 295.9 505.3 294.7Q506.3 293.5 507.8 292.9Q509.4 292.3 511.5 292.3L511.5 292.3Q513.0 292.3 514.3 292.6Q515.6 293.0 516.7 293.7Q517.7 294.4 518.3 295.5Q518.9 296.6 518.9 298.2L518.9 298.2L518.9 310.0L514.3 310.0L514.3 307.5L514.2 307.5Q513.8 308.3 513.1 309.0Q512.4 309.6 511.4 309.9Q510.4 310.3 509.1 310.3ZM510.5 306.9L510.5 306.9Q511.5 306.9 512.4 306.5Q513.2 306.1 513.6 305.4Q514.1 304.6 514.1 303.7L514.1 303.7L514.1 301.9Q513.9 302.0 513.5 302.1Q513.1 302.2 512.6 302.3Q512.1 302.4 511.6 302.5Q511.1 302.6 510.8 302.6L510.8 302.6Q509.9 302.8 509.3 303.0Q508.6 303.3 508.3 303.8Q507.9 304.2 507.9 304.9L507.9 304.9Q507.9 305.9 508.6 306.4Q509.4 306.9 510.5 306.9ZM522.7 286.7L527.5 286.7L527.5 310.0L522.7 310.0L522.7 286.7ZM531.4 286.7L536.2 286.7L536.2 310.0L531.4 310.0L531.4 286.7ZM548.0 310.3L548.0 310.3Q545.4 310.3 543.4 309.2Q541.5 308.1 540.4 306.1Q539.4 304.1 539.4 301.3L539.4 301.3Q539.4 298.6 540.4 296.6Q541.5 294.5 543.4 293.4Q545.3 292.3 547.9 292.3L547.9 292.3Q549.6 292.3 551.1 292.8Q552.6 293.4 553.7 294.5Q554.8 295.6 555.4 297.2Q556.1 298.9 556.1 301.1L556.1 301.1L556.1 302.5L541.3 302.5L541.3 299.5L551.5 299.5Q551.5 298.4 551.0 297.6Q550.6 296.8 549.8 296.3Q549.0 295.9 547.9 295.9L547.9 295.9Q546.8 295.9 546.0 296.4Q545.1 296.9 544.7 297.7Q544.2 298.6 544.2 299.6L544.2 299.6L544.2 302.5Q544.2 303.8 544.7 304.7Q545.1 305.7 546.0 306.2Q546.9 306.7 548.1 306.7L548.1 306.7Q548.9 306.7 549.6 306.5Q550.3 306.2 550.8 305.8Q551.2 305.3 551.5 304.7L551.5 304.7L556.0 305.0Q555.6 306.6 554.6 307.8Q553.5 309.0 551.9 309.6Q550.2 310.3 548.0 310.3ZM558.0 292.5L568.5 292.5L568.5 296.1L558.0 296.1L558.0 292.5ZM560.4 305.2L560.4 288.3L565.2 288.3L565.2 304.6Q565.2 305.3 565.4 305.6Q565.6 306.0 566.0 306.1Q566.4 306.3 566.9 306.3L566.9 306.3Q567.2 306.3 567.5 306.2Q567.9 306.2 568.1 306.1L568.1 306.1L568.8 309.7Q568.5 309.8 567.8 310.0Q567.1 310.2 566.2 310.2L566.2 310.2Q564.4 310.3 563.1 309.7Q561.8 309.2 561.1 308.1Q560.4 306.9 560.4 305.2L560.4 305.2ZM574.5 310.2L574.5 310.2Q573.4 310.2 572.6 309.4Q571.8 308.6 571.8 307.5L571.8 307.5Q571.8 306.4 572.6 305.6Q573.4 304.8 574.5 304.8L574.5 304.8Q575.6 304.8 576.4 305.6Q577.2 306.4 577.2 307.5L577.2 307.5Q577.2 308.3 576.8 308.9Q576.4 309.5 575.8 309.9Q575.2 310.2 574.5 310.2Z "/></svg>