<svg width="160" height="38" viewBox="0 0 160 38" fill="none" xmlns="http://www.w3.org/2000/svg">
<path d="M37.3144 19C37.3144 8.5234 28.9461 0 18.6579 0C8.37029 0 0 8.5234 0 19C0 29.4773 8.37029 38 18.6579 38C28.9455 38 37.3144 29.4773 37.3144 19ZM18.6572 35.5807C9.68014 35.5807 2.37502 28.1433 2.37502 19C2.37502 9.85732 9.67948 2.41866 18.6572 2.41866C27.6349 2.41866 34.9394 9.85732 34.9394 19C34.9394 28.1427 27.6356 35.5807 18.6572 35.5807Z" fill="url(#paint0_linear_581_3009)"/>
<path d="M22.3275 19.3442L17.4403 16.1282C16.8579 15.7226 16.5869 15.2544 16.5869 14.6607C16.5473 14.0683 16.8197 13.5685 17.4007 13.1628C17.9831 12.7572 18.642 12.6322 19.3787 12.7263C20.1161 12.8196 20.6978 13.132 21.0474 13.6626C21.6297 14.3812 22.7154 14.6304 23.6064 14.2247C24.4994 13.7566 24.8483 12.8821 24.2673 12.1648C23.5292 11.072 22.288 10.2915 20.8535 9.94827V8.69965C20.8535 7.85672 20.0383 7.20117 18.9916 7.20117C17.9436 7.20117 17.1297 7.85672 17.1297 8.69965V9.91738C16.3534 10.1357 15.6167 10.4171 14.996 10.8852C13.6004 11.8531 12.8248 13.2267 12.8637 14.6936C12.8637 16.1605 13.6783 17.5347 15.1128 18.4401L19.9618 21.6554C20.5817 22.0308 20.893 22.6239 20.9326 23.217C20.9326 23.8725 20.6213 24.4031 20.0007 24.8088C19.4183 25.2145 18.7212 25.3703 17.9053 25.277C17.1303 25.1829 16.548 24.8397 16.1219 24.2782C15.6173 23.5602 14.4928 23.3103 13.6011 23.716C12.7087 24.1842 12.3981 25.058 12.9026 25.776C13.7172 26.9313 14.9189 27.6808 16.5097 28.0859V29.3036C16.5097 30.1465 17.3242 30.8021 18.3716 30.8021C19.4183 30.8021 20.2335 30.1465 20.2335 29.3036V28.0859C21.0091 27.8676 21.7847 27.5552 22.4449 27.0871C23.8405 26.1192 24.6557 24.7148 24.6557 23.1847C24.6162 21.6856 23.7621 20.3114 22.3275 19.3442Z" fill="url(#paint1_linear_581_3009)"/>
<path d="M49.1697 32.9336H32.1838C29.787 35.3476 26.7723 37.1268 23.4053 37.9999H49.1691C49.6611 37.9999 50.0601 37.5936 50.0601 37.0925V33.8403C50.0608 33.3399 49.6618 32.9336 49.1697 32.9336Z" fill="url(#paint2_linear_581_3009)"/>
<path d="M55.109 27.1865H36.1418C35.2982 29.0511 34.1763 30.7591 32.8269 32.2529H55.109C55.601 32.2529 56 31.8472 56 31.3455V28.0933C56 27.5929 55.601 27.1865 55.109 27.1865Z" fill="url(#paint3_linear_581_3009)"/>
<path d="M52.1397 26.5087C52.6311 26.5087 53.0308 26.1024 53.0308 25.6013V22.3491C53.0308 21.8481 52.6317 21.4424 52.1397 21.4424H37.7544C37.5374 23.2149 37.0902 24.9149 36.4386 26.5087H52.1397Z" fill="url(#paint4_linear_581_3009)"/>
<path d="M55.1089 15.6953H37.6296C37.809 16.7706 37.908 17.8735 37.908 18.9999C37.908 19.5943 37.8783 20.1813 37.8268 20.7623H55.1089C55.6009 20.7623 55.9999 20.3567 55.9999 19.8549V16.6027C55.9999 16.1017 55.6009 15.6953 55.1089 15.6953Z" fill="url(#paint5_linear_581_3009)"/>
<path d="M46.1998 15.0153C46.6918 15.0153 47.0915 14.6096 47.0915 14.1079V10.8557C47.0915 10.3546 46.6925 9.94824 46.1998 9.94824H35.7256C36.5362 11.5246 37.1436 13.2239 37.5077 15.0146L46.1998 15.0153Z" fill="url(#paint6_linear_581_3009)"/>
<g clip-path="url(#clip0_581_3009)">
<path d="M74.6896 13.2529C78.4318 13.2529 83.6646 16.0687 82.6181 23.5034H71.1059C71.6768 25.2118 73.1673 26.0977 75.1653 26.0977C77.195 26.0977 77.8293 25.6548 78.971 25.1802L81.7301 27.8377C80.2713 29.2614 78.305 30.3054 74.975 30.3054C70.8839 30.3054 66 27.4897 66 21.8266C66 16.0687 70.9474 13.2529 74.6896 13.2529ZM74.6896 17.524C73.2625 17.524 71.8036 18.3465 71.1694 19.9917H78.1781C77.6707 18.3465 76.1167 17.524 74.6896 17.524ZM99.0142 13.5377L91.0857 25.6231H98.475V29.9891H83.0938L91.0223 17.9036H83.8232V13.5377H99.0142ZM110.685 13.2529C114.459 13.2529 118.804 16.0687 118.804 21.7317C118.804 27.6163 114.459 30.3054 110.685 30.3054C108.148 30.3054 106.657 28.9134 106.435 28.3439V36.0002H101.424V26.4773V13.5377H106.435V15.0563C106.657 14.7082 108.148 13.2529 110.685 13.2529ZM109.955 25.9079C112.112 25.9079 113.951 24.4525 113.951 21.7317C113.951 19.1058 112.112 17.6505 109.955 17.6505C107.894 17.6505 106.213 19.0742 106.213 21.7317C106.213 24.4842 107.894 25.9079 109.955 25.9079ZM133.392 13.5377H138.403V29.9891H133.392V28.3439C133.17 28.9134 131.679 30.3054 129.142 30.3054C125.368 30.3054 121.024 27.6163 121.024 21.7317C121.024 16.0687 125.368 13.2529 129.142 13.2529C131.679 13.2529 133.17 14.7082 133.392 15.0563V13.5377ZM129.872 25.9079C131.933 25.9079 133.614 24.4842 133.614 21.7317C133.614 19.0742 131.933 17.6505 129.872 17.6505C127.715 17.6505 125.876 19.1058 125.876 21.7317C125.876 24.4525 127.715 25.9079 129.872 25.9079ZM155.021 13.4744H160L149.915 36.0002H144.904L147.949 29.4196L140.813 13.4744H145.792L150.422 24.0413L155.021 13.4744Z" fill="url(#paint7_linear_581_3009)"/>
</g>
<defs>
<linearGradient id="paint0_linear_581_3009" x1="18.6572" y1="0" x2="18.6572" y2="38" gradientUnits="userSpaceOnUse">
<stop stop-color="#2392F7"/>
<stop offset="1" stop-color="#1275E3"/>
</linearGradient>
<linearGradient id="paint1_linear_581_3009" x1="18.6584" y1="7.20117" x2="18.6584" y2="30.8021" gradientUnits="userSpaceOnUse">
<stop stop-color="#2392F7"/>
<stop offset="1" stop-color="#1275E3"/>
</linearGradient>
<linearGradient id="paint2_linear_581_3009" x1="36.7327" y1="32.9336" x2="36.7327" y2="37.9999" gradientUnits="userSpaceOnUse">
<stop stop-color="#2392F7"/>
<stop offset="1" stop-color="#1275E3"/>
</linearGradient>
<linearGradient id="paint3_linear_581_3009" x1="44.4135" y1="27.1865" x2="44.4135" y2="32.2529" gradientUnits="userSpaceOnUse">
<stop stop-color="#2392F7"/>
<stop offset="1" stop-color="#1275E3"/>
</linearGradient>
<linearGradient id="paint4_linear_581_3009" x1="44.7347" y1="21.4424" x2="44.7347" y2="26.5087" gradientUnits="userSpaceOnUse">
<stop stop-color="#2392F7"/>
<stop offset="1" stop-color="#1275E3"/>
</linearGradient>
<linearGradient id="paint5_linear_581_3009" x1="46.8148" y1="15.6953" x2="46.8148" y2="20.7623" gradientUnits="userSpaceOnUse">
<stop stop-color="#2392F7"/>
<stop offset="1" stop-color="#1275E3"/>
</linearGradient>
<linearGradient id="paint6_linear_581_3009" x1="41.4086" y1="9.94824" x2="41.4086" y2="15.0153" gradientUnits="userSpaceOnUse">
<stop stop-color="#2392F7"/>
<stop offset="1" stop-color="#1275E3"/>
</linearGradient>
<linearGradient id="paint7_linear_581_3009" x1="66" y1="24.6265" x2="160" y2="24.6265" gradientUnits="userSpaceOnUse">
<stop stop-color="#2392F7"/>
<stop offset="1" stop-color="#1275E3"/>
</linearGradient>
<clipPath id="clip0_581_3009">
<rect width="94" height="34" fill="white" transform="translate(66 2)"/>
</clipPath>
</defs>
</svg>
