<svg width="100" height="67" viewBox="0 0 100 67" fill="none" xmlns="http://www.w3.org/2000/svg">
<path d="M66.6329 33.3165C66.6329 14.9458 51.6895 0 33.3176 0C14.9469 0 0 14.9458 0 33.3165C0 51.6883 14.9469 66.6329 33.3176 66.6329C51.6883 66.6329 66.6329 51.6883 66.6329 33.3165ZM33.3164 62.3906C17.286 62.3906 4.24111 49.3493 4.24111 33.3165C4.24111 17.2848 17.2848 4.24111 33.3164 4.24111C49.3481 4.24111 62.3918 17.2848 62.3918 33.3165C62.3918 49.3481 49.3493 62.3906 33.3164 62.3906Z" fill="url(#paint0_linear_141_136)"/>
<path d="M39.8707 33.9197L31.1435 28.2806C30.1035 27.5692 29.6195 26.7483 29.6195 25.7071C29.5488 24.6684 30.0352 23.7921 31.0728 23.0807C32.1128 22.3694 33.2894 22.1503 34.6049 22.3152C35.9217 22.4789 36.9604 23.0266 37.5847 23.957C38.6246 25.2172 40.5632 25.6541 42.1544 24.9428C43.749 24.1219 44.3721 22.5884 43.3345 21.3306C42.0166 19.4144 39.8 18.0458 37.2384 17.444V15.2545C37.2384 13.7764 35.7827 12.627 33.9136 12.627C32.0421 12.627 30.5888 13.7764 30.5888 15.2545V17.3898C29.2025 17.7726 27.887 18.2661 26.7787 19.087C24.2866 20.7841 22.9015 23.1926 22.971 25.7649C22.971 28.3371 24.4255 30.7468 26.9872 32.3344L35.6461 37.9723C36.7532 38.6307 37.3091 39.6707 37.3797 40.7106C37.3797 41.8601 36.8238 42.7905 35.7156 43.5019C34.6756 44.2133 33.4307 44.4865 31.9738 44.3228C30.5899 44.1579 29.55 43.5561 28.7891 42.5715C27.8882 41.3125 25.8801 40.8743 24.2878 41.5857C22.6942 42.4066 22.1395 43.9389 23.0405 45.1979C24.495 47.2236 26.6409 48.538 29.4817 49.2482V51.3835C29.4817 52.8616 30.9362 54.0111 32.8065 54.0111C34.6756 54.0111 36.1313 52.8616 36.1313 51.3835V49.2482C37.5163 48.8654 38.9014 48.3178 40.0803 47.4969C42.5725 45.7997 44.0282 43.337 44.0282 40.6541C43.9575 38.0253 42.4323 35.6156 39.8707 33.9197Z" fill="url(#paint1_linear_141_136)"/>
<path d="M87.8032 57.749H57.4711C53.1912 61.9819 47.8076 65.1018 41.7952 66.6329H87.802C88.6806 66.6329 89.3931 65.9203 89.3931 65.0417V59.339C89.3943 58.4616 88.6818 57.749 87.8032 57.749Z" fill="url(#paint2_linear_141_136)"/>
<path d="M98.4088 47.6719H64.5388C63.0324 50.9413 61.0291 53.9364 58.6194 56.5557H98.4088C99.2874 56.5557 100 55.8443 100 54.9646V49.2619C100 48.3844 99.2874 47.6719 98.4088 47.6719Z" fill="url(#paint3_linear_141_136)"/>
<path d="M93.1066 46.4825C93.984 46.4825 94.6977 45.7699 94.6977 44.8913V39.1886C94.6977 38.31 93.9852 37.5986 93.1066 37.5986H67.4185C67.031 40.7067 66.2325 43.6876 65.0688 46.4825H93.1066Z" fill="url(#paint4_linear_141_136)"/>
<path d="M98.4088 27.5215H67.1959C67.5162 29.4071 67.6929 31.341 67.6929 33.3161C67.6929 34.3584 67.6399 35.3877 67.548 36.4065H98.4088C99.2874 36.4065 100 35.6951 100 34.8153V29.1126C100 28.234 99.2874 27.5215 98.4088 27.5215Z" fill="url(#paint5_linear_141_136)"/>
<path d="M82.4996 26.3303C83.3783 26.3303 84.092 25.619 84.092 24.7392V19.0365C84.092 18.1579 83.3794 17.4453 82.4996 17.4453H63.7957C65.2431 20.2095 66.3278 23.1892 66.978 26.3292L82.4996 26.3303Z" fill="url(#paint6_linear_141_136)"/>
<defs>
<linearGradient id="paint0_linear_141_136" x1="33.3165" y1="0" x2="33.3165" y2="66.6329" gradientUnits="userSpaceOnUse">
<stop stop-color="#2392F7"/>
<stop offset="1" stop-color="#1275E3"/>
</linearGradient>
<linearGradient id="paint1_linear_141_136" x1="33.3186" y1="12.627" x2="33.3186" y2="54.0111" gradientUnits="userSpaceOnUse">
<stop stop-color="#2392F7"/>
<stop offset="1" stop-color="#1275E3"/>
</linearGradient>
<linearGradient id="paint2_linear_141_136" x1="65.5941" y1="57.749" x2="65.5941" y2="66.6329" gradientUnits="userSpaceOnUse">
<stop stop-color="#2392F7"/>
<stop offset="1" stop-color="#1275E3"/>
</linearGradient>
<linearGradient id="paint3_linear_141_136" x1="79.3097" y1="47.6719" x2="79.3097" y2="56.5557" gradientUnits="userSpaceOnUse">
<stop stop-color="#2392F7"/>
<stop offset="1" stop-color="#1275E3"/>
</linearGradient>
<linearGradient id="paint4_linear_141_136" x1="79.8833" y1="37.5986" x2="79.8833" y2="46.4825" gradientUnits="userSpaceOnUse">
<stop stop-color="#2392F7"/>
<stop offset="1" stop-color="#1275E3"/>
</linearGradient>
<linearGradient id="paint5_linear_141_136" x1="83.5979" y1="27.5215" x2="83.5979" y2="36.4065" gradientUnits="userSpaceOnUse">
<stop stop-color="#2392F7"/>
<stop offset="1" stop-color="#1275E3"/>
</linearGradient>
<linearGradient id="paint6_linear_141_136" x1="73.9438" y1="17.4453" x2="73.9438" y2="26.3303" gradientUnits="userSpaceOnUse">
<stop stop-color="#2392F7"/>
<stop offset="1" stop-color="#1275E3"/>
</linearGradient>
</defs>
</svg>
