<svg width="250" height="91" viewBox="0 0 250 91" fill="none" xmlns="http://www.w3.org/2000/svg">
<g clip-path="url(#clip0_112_1222)">
<path d="M23.1107 30C33.0634 30 46.9804 37.5067 44.197 57.3279H13.5796C15.0978 61.8826 19.0621 64.2443 24.3758 64.2443C29.774 64.2443 31.4609 63.0634 34.4973 61.7982L41.8354 68.8833C37.9555 72.6788 32.726 75.4622 23.8698 75.4622C12.9892 75.4622 0 67.9555 0 52.8576C0 37.5067 13.1579 30 23.1107 30ZM23.1107 41.3866C19.3151 41.3866 15.4352 43.5796 13.7483 47.9656H32.3887C31.0391 43.5796 26.9062 41.3866 23.1107 41.3866ZM87.8036 30.7591L66.7173 62.9791H86.3698V74.6188H45.4622L66.5486 42.3988H47.4022V30.7591H87.8036ZM118.843 30C128.88 30 140.435 37.5067 140.435 52.6046C140.435 68.2928 128.88 75.4622 118.843 75.4622C112.095 75.4622 108.131 71.751 107.54 70.2328V90.6444H94.2139V65.2564V30.7591H107.54V34.8077C108.131 33.8799 112.095 30 118.843 30ZM116.903 63.7382C122.638 63.7382 127.53 59.8583 127.53 52.6046C127.53 45.6039 122.638 41.724 116.903 41.724C111.42 41.724 106.95 45.5196 106.95 52.6046C106.95 59.9426 111.42 63.7382 116.903 63.7382ZM179.234 30.7591H192.561V74.6188H179.234V70.2328C178.644 71.751 174.679 75.4622 167.932 75.4622C157.895 75.4622 146.339 68.2928 146.339 52.6046C146.339 37.5067 157.895 30 167.932 30C174.679 30 178.644 33.8799 179.234 34.8077V30.7591ZM169.872 63.7382C175.354 63.7382 179.825 59.9426 179.825 52.6046C179.825 45.5196 175.354 41.724 169.872 41.724C164.136 41.724 159.244 45.6039 159.244 52.6046C159.244 59.8583 164.136 63.7382 169.872 63.7382ZM236.758 30.5904H250L223.178 90.6444H209.852L217.949 73.1005L198.971 30.5904H212.213L224.528 58.7618L236.758 30.5904Z" fill="url(#paint0_linear_112_1222)"/>
</g>
<defs>
<linearGradient id="paint0_linear_112_1222" x1="9.31322e-07" y1="60.3222" x2="250" y2="60.3222" gradientUnits="userSpaceOnUse">
<stop stop-color="#2392F7"/>
<stop offset="1" stop-color="#1275E3"/>
</linearGradient>
<clipPath id="clip0_112_1222">
<rect width="250" height="90.6444" fill="white"/>
</clipPath>
</defs>
</svg>
